<svg t="1652870904777" class="icon" viewBox="0 0 1024 1024" version="1.1" xmlns="http://www.w3.org/2000/svg" p-id="13210" width="200" height="200"><path d="M853.3 725.3H298.7c-23.6 0-42.7 19.1-42.7 42.7v64c0 11.8-9.6 21.3-21.3 21.3-11.8 0-21.3-9.6-21.3-21.3V213.3c0-23.5 19.1-42.6 42.6-42.6h426.8c23.5 0 42.6 19.1 42.6 42.6v426.9c0 23.6 19.1 42.7 42.7 42.7s42.7-19.1 42.7-42.7V213.3c0-70.5-57.4-127.9-127.9-127.9h-427c-70.5 0-127.9 57.4-127.9 127.9V832c0 58.8 47.9 106.7 106.7 106.7S341.3 890.8 341.3 832v-21.3h463.5c-10.3 30.2-35.1 42.7-79.5 42.7H426.7c-23.6 0-42.7 19.1-42.7 42.7s19.1 42.7 42.7 42.7h298.7C833.8 938.7 896 876.5 896 768c0-23.6-19.1-42.7-42.7-42.7z" p-id="13211" fill="#ffffff"></path><path d="M320 384h170.7c23.6 0 42.7-19.1 42.7-42.7s-19.1-42.7-42.7-42.7H320c-23.6 0-42.7 19.1-42.7 42.7S296.4 384 320 384zM320 554.7h298.7c23.6 0 42.7-19.1 42.7-42.7s-19.1-42.7-42.7-42.7H320c-23.6 0-42.7 19.1-42.7 42.7s19.1 42.7 42.7 42.7z" p-id="13212" fill="#ffffff"></path></svg>
