<svg t="1653876673834" class="icon" viewBox="0 0 1024 1024" version="1.1" xmlns="http://www.w3.org/2000/svg" p-id="1958" width="200" height="200"><path d="M995.328 1024H334.0288a20.48 20.48 0 1 1 0-40.96H995.328a20.48 20.48 0 0 1 0 40.96zM578.3552 807.1168h-3.2768a20.48 20.48 0 0 1-15.1552-11.4688l-40.96-84.3776L160.768 352.256l-92.9792-48.5376a20.48 20.48 0 0 1-4.9152-32.5632L327.68 5.9392a20.48 20.48 0 0 1 32.5632 5.12L409.6 103.8336l358.1952 358.8096 84.5824 40.96a20.48 20.48 0 0 1 11.264 15.1552 20.48 20.48 0 0 1-5.5296 17.8176L593.92 801.1776a20.48 20.48 0 0 1-15.5648 5.9392zM111.616 280.3712l70.8608 37.0688a18.0224 18.0224 0 0 1 5.12 3.6864L550.912 684.4416a22.528 22.528 0 0 1 4.096 5.7344l29.4912 61.44 224.0512-224.0512-61.44-29.4912a18.8416 18.8416 0 0 1-5.7344-3.8912L377.856 130.6624a16.5888 16.5888 0 0 1-3.4816-4.9152l-37.0688-71.0656z" fill="#ffffff" p-id="1959"></path><path d="M109.3632 852.7872a65.3312 65.3312 0 0 1-45.8752-18.8416l-36.2496-36.4544a64.9216 64.9216 0 0 1 0-91.5456l258.048-258.2528a20.48 20.48 0 0 1 29.0816 0l98.9184 99.1232a20.48 20.48 0 0 1 0 29.0816l-258.048 258.048a65.3312 65.3312 0 0 1-45.8752 18.8416zM299.8272 491.52L56.1152 734.8224a24.1664 24.1664 0 0 0 0 33.792l36.4544 36.2496a23.7568 23.7568 0 0 0 33.792 0l243.5072-243.5072z" fill="#ffffff" p-id="1960"></path></svg>
