<svg t="1676541291136" class="icon" viewBox="0 0 1024 1024" version="1.1" xmlns="http://www.w3.org/2000/svg" p-id="9559" width="200" height="200"><path d="M304.128 592.384v158.208a25.6 25.6 0 1 0 51.2 0v-158.208a25.6 25.6 0 1 0-51.2 0zM266.752 439.296L476.16 293.376l124.416 135.68a27.136 27.136 0 0 0 6.656 5.12h18.944a27.136 27.136 0 0 0 7.68-3.584l219.648-153.6a27.648 27.648 0 0 0-31.744-45.568l-204.8 141.824-115.712-134.656a27.648 27.648 0 0 0-35.84-3.584 26.624 26.624 0 0 0-7.168 3.072l-223.232 153.6a27.648 27.648 0 0 0 31.744 45.568zM457.216 484.864v265.728a25.6 25.6 0 1 0 51.2 0V484.864a25.6 25.6 0 1 0-51.2 0zM761.344 484.864v265.728a25.6 25.6 0 1 0 51.2 0V484.864a25.6 25.6 0 1 0-51.2 0zM609.792 592.384v158.208a25.6 25.6 0 1 0 51.2 0v-158.208a25.6 25.6 0 1 0-51.2 0z" fill="#ffffff" p-id="9560"></path><path d="M897.536 851.456H288.768a102.4 102.4 0 0 1-102.4-102.4V179.2a25.6 25.6 0 0 0-51.2 0v569.856a153.6 153.6 0 0 0 153.6 153.6h608.768a25.6 25.6 0 1 0 0-51.2z" fill="#ffffff" p-id="9561"></path></svg>
