<svg t="1642572629368" class="icon" viewBox="0 0 1024 1024" version="1.1" xmlns="http://www.w3.org/2000/svg" p-id="11983" width="200" height="200"><path d="M788.96 864h-550.4A62.56 62.56 0 0 1 176 801.44v-550.4a62.72 62.72 0 0 1 62.56-62.56H576v64H240V800h547.52V477.44h64v324A62.72 62.72 0 0 1 788.96 864zM823.68 320a64 64 0 0 1-45.28-18.72l-41.28-41.44a64 64 0 0 1 0-90.4l21.76-21.92a64 64 0 0 1 90.56 0l41.28 41.28a64 64 0 0 1 0 90.56l-21.92 21.76A64 64 0 0 1 823.68 320z m-19.52-128l-21.92 21.92L823.68 256l21.92-21.92z" p-id="11984" fill="#ffffff"></path><path d="M528 616.16a64 64 0 0 1-45.28-18.72l-41.28-41.28a64 64 0 0 1 0-90.56L758.88 147.36a64 64 0 0 1 90.56 0l41.28 41.28a64 64 0 0 1 0 90.56L572.48 597.44A64 64 0 0 1 528 616.16zM804.16 192L485.92 510.88 528 552.32l318.4-318.4z" p-id="11985" fill="#ffffff"></path><path d="M396 642.08l24.32-135.68 63.04 11.36-8.16 45.12 45.12-8.16 11.36 63.04-135.68 24.32z" p-id="11986" fill="#ffffff"></path></svg>