<svg t="1652870841508" class="icon" viewBox="0 0 1024 1024" version="1.1" xmlns="http://www.w3.org/2000/svg" p-id="9499" width="200" height="200"><path d="M300.575 326.995l196.662 0c11.637 0 21.068-9.433 21.068-21.07s-9.431-21.073-21.068-21.073l-196.662 0c-11.639 0-21.073 9.436-21.073 21.073s9.436 21.07 21.073 21.07zM279.502 516.635c0 11.637 9.433 21.073 21.073 21.073l421.423 0c11.632 0 21.068-9.436 21.068-21.073s-9.436-21.07-21.068-21.07l-421.423 0c-11.637-0.001-21.073 9.433-21.073 21.07zM686.877 46.048l-505.705 0c-31.032 0-56.189 25.156-56.189 56.189l0 828.795c0 31.031 25.156 56.189 56.189 56.189l674.273 0c31.031 0 56.189-25.159 56.189-56.189l0-646.179-224.757-238.805zM686.877 102.238l168.568 182.614-140.471 0c-15.522 0-28.097-12.577-28.097-28.092l0-154.522zM855.445 902.94c0 15.513-12.579 28.092-28.092 28.092l-618.086 0c-15.518 0-28.094-12.579-28.094-28.092l0-772.608c0-15.515 12.579-28.094 28.094-28.094l435.466 0 0 168.568c0 31.032 25.159 56.189 56.194 56.189l154.52 0 0 575.945-0.001 0zM721.998 720.319l-421.423 0c-11.639 0-21.073 9.436-21.073 21.073 0 11.642 9.433 21.073 21.073 21.073l421.423 0c11.632 0 21.068-9.431 21.068-21.073 0-11.637-9.436-21.073-21.068-21.073z" p-id="9500" fill="#ffffff"></path></svg>
