<svg t="1642572818161" class="icon" viewBox="0 0 1024 1024" version="1.1" xmlns="http://www.w3.org/2000/svg" p-id="17475" width="200" height="200"><path d="M608 0a96 96 0 0 1 90.56 64h37.44a160 160 0 0 1 159.68 149.504L896 224v640a160 160 0 0 1-149.504 159.68L736 1024h-448a160 160 0 0 1-159.68-149.504L128 864v-640a160 160 0 0 1 149.504-159.68L288 64h37.44c12.16-34.432 43.392-59.84 81.024-63.552L416 0h192zM324.992 128H288a96 96 0 0 0-94.272 77.76l-1.28 8.96L192 224v640a96 96 0 0 0 86.784 95.552L288 960h448a96 96 0 0 0 95.552-86.784L832 864v-640a96 96 0 0 0-86.784-95.552L736 128h-36.992l-2.24 6.784c-14.528 37.12-49.024 63.808-89.92 67.456l-9.536 0.448-172.352-0.064-9.856-0.64a106.624 106.624 0 0 1-85.12-60.928L326.4 132.672 324.992 128zM608 704a32 32 0 1 1 0 64h-192a32 32 0 1 1 0-64h192z m-320 0a32 32 0 1 1 0 64 32 32 0 0 1 0-64z m384-192a32 32 0 1 1 0 64h-256a32 32 0 0 1 0-64h256z m-384 0a32 32 0 1 1 0 64 32 32 0 0 1 0-64z m448-192a32 32 0 1 1 0 64h-320a32 32 0 0 1 0-64h320z m-448 0a32 32 0 1 1 0 64 32 32 0 0 1 0-64z m320-256h-192a32 32 0 0 0-5.76 63.488L416 128h192a32 32 0 0 0 31.488-26.24l0.32-3.648L640 95.36a32 32 0 0 0-26.24-30.848L608 64z" p-id="17476" fill="#ffffff"></path></svg>