<svg t="1642572527225" class="icon" viewBox="0 0 1024 1024" version="1.1" xmlns="http://www.w3.org/2000/svg" p-id="10462" width="200" height="200"><path d="M968.704 529.92H34.816c-10.24 0-19.456-6.144-23.552-15.872-4.096-9.728-1.536-20.48 5.632-27.648L483.84 19.456c10.24-10.24 26.112-10.24 36.352 0L986.624 486.4c7.168 7.168 9.728 18.432 5.632 27.648-4.096 9.728-13.312 15.872-23.552 15.872z m-871.936-51.2h810.496L501.76 73.728 96.768 478.72z" p-id="10463" fill="#ffffff"></path><path d="M616.96 901.12c-14.336 0-25.6-11.264-25.6-25.6V504.32c0-14.336 11.264-25.6 25.6-25.6s25.6 11.264 25.6 25.6V875.52c0 14.336-11.264 25.6-25.6 25.6zM857.6 913.92c-14.336 0-25.6-11.264-25.6-25.6V517.12c0-14.336 11.264-25.6 25.6-25.6s25.6 11.264 25.6 25.6v371.2c0 14.336-11.264 25.6-25.6 25.6zM135.68 913.92c-14.336 0-25.6-11.264-25.6-25.6V517.12c0-14.336 11.264-25.6 25.6-25.6s25.6 11.264 25.6 25.6v371.2c0 14.336-11.264 25.6-25.6 25.6zM376.32 916.48c-14.336 0-25.6-11.264-25.6-25.6v-371.2c0-14.336 11.264-25.6 25.6-25.6s25.6 11.264 25.6 25.6V890.88c0 14.336-11.264 25.6-25.6 25.6z" p-id="10464" fill="#ffffff"></path><path d="M968.704 931.84H34.816c-14.336 0-25.6-11.264-25.6-25.6s11.264-25.6 25.6-25.6h933.888c14.336 0 25.6 11.264 25.6 25.6s-11.264 25.6-25.6 25.6z" p-id="10465" fill="#ffffff"></path></svg>