<svg t="1649920177401" class="icon" viewBox="0 0 1024 1024" version="1.1" xmlns="http://www.w3.org/2000/svg" p-id="3738" width="200" height="200"><path d="M877.30394 854.450443 144.307663 854.450443c-43.765783 0-79.242785-35.479049-79.242785-79.242785L65.064878 478.0467l891.480824 0 0 297.159934C956.545702 818.971393 921.067676 854.450443 877.30394 854.450443zM877.30394 686.057221c0-5.469572-4.436032-9.903557-9.905604-9.903557L649.480164 676.153664c-5.471618 0-9.905604 4.433986-9.905604 9.903557l0 39.623439c0 5.469572 4.433986 9.905604 9.905604 9.905604l217.917148 0c5.469572 0 9.905604-4.436032 9.905604-9.905604L877.302917 686.057221zM65.064878 279.939737c0-43.765783 35.477003-79.242785 79.242785-79.242785l732.995253 0c43.763736 0 79.242785 35.477003 79.242785 79.242785l0 79.242785L65.064878 359.182522 65.064878 279.939737z" p-id="3739"></path></svg>