<svg t="1644911232222" class="icon" viewBox="0 0 1024 1024" version="1.1" xmlns="http://www.w3.org/2000/svg" p-id="9920" width="200" height="200"><path d="M825.11398 676.695821l-39.805636-0.199028 0.511787-91.439234c0.710815-131.415466 0.76768-142.162988 0.76768-179.125364a274.602027 274.602027 0 1 0-549.204054 0c0 37.502596 0.341191 267.266417 0.341191 269.569457h-39.805637c0-2.30304-0.341191-232.095294-0.341191-269.626322a314.407663 314.407663 0 1 1 628.815327 0c0 36.962377 0 47.709899-0.76768 179.125364z" p-id="9921"></path><path d="M859.943912 891.276635H164.056088a54.448424 54.448424 0 0 1-47.055949-81.857449l80.805442-138.665778v-23.627488l39.805637 0.142163v34.318145l-86.150771 147.849507a14.642788 14.642788 0 0 0 12.652506 22.006831h695.830959a14.642788 14.642788 0 0 0 12.652506-22.006831l-86.008607-147.593614-1.137304-32.924948 39.805636-1.393197 0.796113 22.916674 80.947605 138.950104a54.419992 54.419992 0 0 1-47.027516 81.857448z" p-id="9922"></path><path d="M511.985784 1024a152.796779 152.796779 0 0 1-152.597751-152.626184h39.805636a112.820547 112.820547 0 1 0 225.612662 0h39.805636a152.796779 152.796779 0 0 1-152.626183 152.626184zM450.713536 134.571484a13.363321 13.363321 0 0 1-19.902818-4.918839 87.913592 87.913592 0 0 1-6.397335-17.656643 91.410801 91.410801 0 0 1-2.644231-21.722505 90.273497 90.273497 0 1 1 177.902762 21.836235 93.827572 93.827572 0 0 1-2.843259 9.496488c-0.483354 1.307899-1.023574 2.644232-1.563793 3.952131a13.363321 13.363321 0 0 1-19.504762 5.686519L564.443926 124.108288a13.505484 13.505484 0 0 1-5.1463-16.235013 49.302124 49.302124 0 0 0 1.620658-5.288463 50.467861 50.467861 0 1 0-99.514091-12.226017 51.178676 51.178676 0 0 0 1.478495 12.169152 49.870776 49.870776 0 0 0 2.84326 8.273886 13.24959 13.24959 0 0 1-4.463918 16.064417z" p-id="9923"></path></svg>