<svg t="1657072265156" class="icon" viewBox="0 0 1024 1024" version="1.1" xmlns="http://www.w3.org/2000/svg" p-id="5536" width="200" height="200"><path d="M779.997242 65.355497 243.998665 65.355497c-98.711186 0-178.709171 79.997985-178.709171 178.709171l0 535.9996c0 98.625228 79.997985 178.579211 178.709171 178.579211l535.998577 0c98.711186 0 178.711218-79.953983 178.711218-178.579211L958.70846 244.064668C958.70846 145.353482 878.708428 65.355497 779.997242 65.355497zM869.286848 735.309972c0 74.065879-59.932997 134.042879-133.954875 134.042879L288.623002 869.352851c-73.979922 0-133.912919-59.977-133.912919-134.042879L154.710083 288.731984c0-74.023924 59.932997-134.086881 133.912919-134.086881l446.708971 0c74.021877 0 133.954875 60.062957 133.954875 134.086881L869.286848 735.309972zM534.376125 355.644953 288.840966 601.179089l-44.623313-44.665269 245.405199-245.536182-66.912969-66.912969 178.753173-0.217964-0.173962 178.797176L534.376125 355.644953zM735.158011 422.86082l44.621267 44.623313L534.376125 713.020316l66.912969 67.042929L422.709883 780.063245 422.709883 601.354074l66.912969 67.042929L735.158011 422.86082z" p-id="5537" fill="#ffffff"></path></svg>
